<?xml version="1.0" standalone="no"?>
<!DOCTYPE svg PUBLIC "-//W3C//DTD SVG 20010904//EN"
 "http://www.w3.org/TR/2001/REC-SVG-20010904/DTD/svg10.dtd">
<svg version="1.0" xmlns="http://www.w3.org/2000/svg"
 width="300.000000pt" height="300.000000pt" viewBox="0 0 300.000000 300.000000"
 preserveAspectRatio="xMidYMid meet">
<metadata>
Created by potrace 1.10, written by Peter Selinger 2001-2011
</metadata>
<g transform="translate(0.000000,300.000000) scale(0.100000,-0.100000)"
fill="#000000" stroke="none">
<path d="M1005 2768 c-24 -19 -27 -26 -21 -65 4 -33 2 -45 -9 -49 -26 -10 -17
-33 11 -31 24 2 29 -5 62 -90 21 -51 39 -93 42 -93 3 0 11 4 18 9 11 6 6 27
-22 96 -20 49 -36 94 -36 101 0 7 14 15 31 19 16 4 28 12 26 18 -4 11 -16 12
-62 5 -16 -2 -21 3 -23 30 -3 29 0 33 27 38 17 4 31 13 31 20 0 21 -44 17 -75
-8z"/>
<path d="M1168 2783 c-13 -3 -16 -11 -11 -34 4 -22 2 -29 -11 -29 -9 0 -16 -8
-16 -18 0 -13 7 -18 22 -18 22 1 25 -6 52 -126 4 -15 18 -35 32 -44 21 -14 31
-15 65 -5 49 15 47 37 -3 33 -43 -4 -52 7 -69 83 -18 81 -18 79 16 85 18 3 30
11 30 20 0 16 -16 18 -52 6 -20 -6 -23 -4 -23 18 0 28 -7 34 -32 29z"/>
<path d="M1340 2771 c0 -4 18 -59 39 -122 52 -152 64 -155 116 -29 21 50 41
88 44 84 3 -3 20 -45 36 -92 43 -124 55 -121 117 33 26 66 48 121 48 122 0 0
-9 -1 -19 -4 -14 -3 -31 -33 -56 -96 -20 -51 -38 -93 -40 -95 -2 -2 -18 42
-36 98 -44 132 -58 133 -107 3 -20 -51 -38 -93 -42 -93 -4 0 -19 42 -34 94
-21 70 -33 96 -47 99 -11 3 -19 2 -19 -2z"/>
<path d="M1813 2714 c-7 -3 -13 -12 -13 -20 0 -10 12 -14 41 -14 64 0 108 -36
94 -79 -5 -17 -8 -17 -65 2 -69 23 -102 15 -122 -28 -24 -54 47 -114 118 -100
27 5 33 3 28 -8 -5 -15 22 -32 29 -19 3 4 17 44 32 90 31 94 26 125 -24 155
-30 18 -98 30 -118 21z m60 -140 c52 -18 54 -20 31 -52 -20 -29 -76 -30 -104
-2 -24 24 -25 34 -4 54 19 20 20 20 77 0z"/>
<path d="M2037 2518 c-49 -88 -55 -104 -43 -116 12 -12 19 -5 51 49 47 81 60
91 112 85 30 -4 43 -1 47 9 7 20 -9 27 -56 27 -34 -1 -38 1 -27 14 10 13 10
17 -2 25 -8 5 -16 9 -19 9 -3 -1 -31 -46 -63 -102z"/>
<path d="M804 2561 c-30 -18 -64 -74 -64 -106 0 -44 59 -112 100 -115 59 -5
80 1 114 34 32 30 36 39 36 84 0 44 -5 55 -34 86 -28 31 -40 36 -77 36 -25 0
-57 -8 -75 -19z m122 -45 c43 -43 44 -77 5 -117 -49 -48 -114 -34 -141 30 -17
42 -5 78 33 101 45 28 64 25 103 -14z"/>
<path d="M555 2451 c-40 -24 -71 -60 -84 -94 -16 -41 -14 -52 15 -86 35 -42
65 -40 144 9 36 22 70 40 76 40 6 0 19 -9 29 -20 15 -17 16 -24 5 -50 -15 -36
-61 -77 -96 -86 -26 -7 -28 -12 -16 -32 7 -9 18 -7 52 11 96 51 133 145 76
193 -15 13 -34 24 -42 24 -18 0 -65 -22 -119 -55 -22 -14 -45 -25 -52 -25 -18
0 -43 29 -43 50 0 26 57 89 87 96 16 4 22 11 19 21 -3 8 -6 17 -6 19 0 8 -16
3 -45 -15z"/>
<path d="M2198 2447 c-34 -28 -48 -58 -48 -98 0 -58 66 -129 120 -129 34 0 20
31 -20 44 -42 14 -74 63 -64 100 9 36 23 33 69 -15 22 -22 53 -50 69 -61 l29
-21 18 24 c11 15 19 41 19 68 0 36 -6 49 -34 77 -29 29 -41 34 -82 34 -36 0
-56 -6 -76 -23z m133 -36 c30 -31 38 -71 17 -89 -10 -7 -28 4 -70 43 -51 48
-56 55 -40 64 30 18 63 12 93 -18z"/>
<path d="M2635 2201 c-6 -5 -66 -37 -135 -71 -69 -35 -126 -64 -128 -66 -7 -4
99 -204 108 -204 23 0 18 25 -19 99 -30 60 -37 81 -28 89 10 7 77 42 81 42 1
0 17 -31 36 -70 32 -65 51 -83 64 -61 3 4 -10 37 -29 72 -19 35 -35 67 -35 71
0 11 79 50 90 43 4 -3 25 -39 45 -79 26 -52 41 -73 51 -69 8 3 14 9 14 14 0 8
-100 199 -104 199 -1 0 -6 -4 -11 -9z"/>
<path d="M367 2083 c-14 -13 -6 -54 23 -129 17 -42 29 -79 26 -81 -2 -2 -12 0
-23 6 -10 6 -55 27 -100 45 -79 34 -82 34 -88 15 -4 -11 -5 -21 -3 -23 1 -1
72 -29 156 -62 144 -58 153 -60 163 -42 7 14 6 19 -6 23 -8 3 -22 7 -30 10
-16 5 -47 64 -39 76 2 3 33 14 69 24 42 11 69 24 76 37 6 11 9 22 6 24 -3 3
-42 -7 -87 -21 -45 -15 -83 -25 -84 -23 -2 1 -14 31 -28 65 -14 35 -28 60 -31
56z"/>
<path d="M2615 1849 c-49 -11 -100 -21 -112 -24 -15 -4 -20 -10 -16 -25 6 -23
2 -23 78 -5 81 20 92 19 120 -10 17 -16 25 -35 25 -59 0 -43 -23 -57 -123 -76
-54 -10 -67 -16 -65 -29 7 -32 162 -5 202 36 40 39 31 114 -17 154 l-22 18 24
1 c17 0 22 4 17 16 -3 9 -6 18 -6 20 0 5 2 5 -105 -17z"/>
<path d="M282 1770 c-29 -27 -43 -82 -31 -124 28 -102 176 -118 225 -25 29 58
4 168 -32 138 -11 -9 -11 -15 2 -41 35 -67 -30 -142 -102 -118 -62 21 -83 83
-44 133 34 43 19 72 -18 37z"/>
<path d="M2462 1539 c-18 -29 -32 -105 -26 -138 4 -17 18 -42 31 -55 27 -27
48 -31 201 -41 88 -6 92 -6 92 14 0 12 -6 21 -14 21 -11 0 -10 8 5 37 23 45
24 75 3 118 -16 34 -65 65 -104 65 -34 0 -78 -28 -95 -60 -20 -38 -19 -100 2
-129 l16 -24 -33 7 c-50 10 -70 32 -70 80 1 23 7 52 15 66 8 14 14 30 15 36 0
21 -26 23 -38 3z m251 -48 c39 -38 13 -140 -36 -142 -46 -3 -63 3 -84 27 -36
40 -25 110 21 133 28 14 76 5 99 -18z"/>
<path d="M366 1496 c-105 -14 -126 -31 -126 -103 0 -44 23 -103 40 -103 18 0
20 18 5 46 -28 54 -14 99 36 117 13 4 17 -5 23 -54 3 -33 10 -69 16 -79 12
-23 50 -35 80 -25 45 14 58 106 21 149 -12 14 -13 20 -3 23 13 5 17 44 5 42
-5 -1 -48 -7 -97 -13z m68 -58 c19 -27 21 -79 4 -96 -17 -17 -46 -15 -57 6 -8
14 -15 79 -12 105 2 17 51 6 65 -15z"/>
<path d="M465 1270 c-3 -5 0 -18 7 -30 20 -32 -1 -52 -77 -77 -37 -12 -71 -20
-75 -18 -4 3 -10 19 -14 36 -3 19 -11 29 -18 26 -12 -4 -13 -16 -6 -62 2 -14
-3 -21 -19 -23 -15 -2 -23 -10 -23 -23 0 -18 4 -20 31 -14 25 6 31 3 36 -13 3
-13 10 -19 20 -15 9 4 13 14 9 27 -5 19 2 23 62 40 95 26 112 39 112 82 0 54
-27 93 -45 64z"/>
<path d="M2490 1231 c0 -15 19 -23 101 -45 56 -15 107 -30 114 -32 12 -5 30
24 21 33 -5 6 -208 62 -223 63 -7 0 -13 -8 -13 -19z"/>
<path d="M2780 1164 c-11 -12 -10 -18 3 -32 16 -15 18 -15 34 0 13 14 14 20 3
32 -7 9 -16 16 -20 16 -4 0 -13 -7 -20 -16z"/>
<path d="M2463 1135 c-7 -19 -11 -16 64 -54 74 -37 99 -68 86 -108 -5 -15 -21
-36 -35 -46 l-26 -20 -82 39 c-68 31 -83 35 -91 23 -5 -8 -9 -16 -8 -19 0 -9
164 -80 184 -80 51 0 102 76 89 133 -6 27 -5 30 8 19 12 -10 18 -9 28 3 7 9
11 17 9 19 -5 5 -212 106 -216 106 -2 0 -6 -7 -10 -15z"/>
<path d="M475 1081 c-48 -20 -56 -51 -35 -153 11 -56 11 -69 0 -83 -33 -40
-97 8 -109 82 -4 25 -12 39 -24 41 -24 5 -23 -47 3 -97 39 -78 102 -101 155
-59 30 23 29 9 9 166 -5 38 -3 51 11 62 39 32 105 -45 105 -122 0 -31 4 -38
20 -38 43 0 13 127 -41 177 -29 26 -66 35 -94 24z"/>
<path d="M2303 850 c-36 -22 -58 -52 -68 -92 -6 -24 -4 -28 14 -28 14 0 21 6
21 20 0 11 13 34 29 52 22 25 37 32 64 32 20 0 39 -3 43 -7 7 -6 -89 -124
-113 -140 -19 -12 -16 -21 16 -40 86 -51 191 17 178 116 -12 88 -108 134 -184
87z m153 -97 c11 -57 -68 -114 -115 -84 -12 7 -3 22 39 71 29 33 57 57 61 53
5 -5 11 -23 15 -40z"/>
<path d="M643 667 c-106 -106 -120 -124 -107 -136 14 -11 32 3 136 108 105
106 119 124 107 136 -13 13 -31 -1 -136 -108z"/>
<path d="M741 579 c-90 -113 -102 -132 -90 -145 13 -12 29 4 121 120 77 98
103 137 95 145 -6 6 -13 11 -16 11 -4 0 -53 -59 -110 -131z"/>
<path d="M2069 641 c-41 -40 -49 -65 -25 -74 9 -4 16 3 20 19 7 27 60 64 91
64 11 -1 31 -7 44 -14 23 -13 22 -14 -58 -71 -44 -32 -81 -62 -81 -66 0 -4 14
-19 31 -33 53 -45 141 -27 175 36 30 53 6 135 -48 164 -13 8 -43 13 -67 14
-37 0 -49 -5 -82 -39z m176 -70 c15 -47 -49 -110 -98 -95 -51 15 -49 25 15 70
35 24 66 44 70 44 4 0 9 -8 13 -19z"/>
<path d="M872 542 c-57 -108 -59 -117 -37 -126 11 -4 24 12 45 55 17 33 39 68
50 79 24 24 67 26 98 4 32 -22 28 -67 -13 -143 -26 -49 -32 -67 -22 -73 22
-14 28 -8 68 76 46 95 45 121 -3 161 -21 17 -41 25 -69 25 -32 0 -39 3 -37 17
2 10 -4 19 -12 20 -10 3 -32 -28 -68 -95z"/>
<path d="M1938 572 c-24 -5 -23 -9 13 -86 34 -73 33 -98 -9 -133 -20 -17 -24
-25 -15 -34 15 -15 49 4 58 31 7 21 25 28 25 10 0 -5 9 -10 21 -10 13 0 19 5
16 13 -56 133 -90 212 -91 213 0 0 -9 -1 -18 -4z"/>
<path d="M1321 440 c-6 -28 -11 -58 -11 -65 0 -19 -11 -19 -80 0 -69 18 -90
19 -90 1 0 -9 26 -20 73 -31 39 -10 75 -19 78 -21 7 -4 -13 -99 -22 -109 -4
-3 -33 0 -65 8 -116 29 -114 29 -114 10 0 -15 19 -23 102 -41 56 -12 105 -19
108 -15 4 4 22 73 39 152 27 117 30 145 19 152 -22 15 -26 11 -37 -41z"/>
<path d="M1647 393 c-14 -13 -6 -53 12 -63 36 -19 68 11 56 51 -6 19 -54 27
-68 12z"/>
</g>
</svg>
